<?xml version="1.0" standalone="no"?>
<!DOCTYPE svg PUBLIC "-//W3C//DTD SVG 20010904//EN"
 "http://www.w3.org/TR/2001/REC-SVG-20010904/DTD/svg10.dtd">
<svg version="1.0" xmlns="http://www.w3.org/2000/svg"
 width="512.000000pt" height="512.000000pt" viewBox="0 0 512.000000 512.000000"
 preserveAspectRatio="xMidYMid meet">

<g transform="translate(0.000000,512.000000) scale(0.100000,-0.100000)"
fill="#000000" stroke="none">
<path d="M1415 5095 l-25 -24 0 -355 0 -356 -22 -5 c-13 -3 -242 -48 -510 -99
-267 -52 -496 -100 -508 -106 -11 -6 -25 -22 -30 -35 -6 -17 93 -549 381
-2032 214 -1104 393 -2019 397 -2033 5 -14 20 -31 34 -39 23 -13 143 9 1379
248 922 178 1362 268 1378 279 23 17 894 1296 911 1339 6 15 -37 259 -151 845
-215 1111 -216 1119 -236 1140 -38 43 -123 9 -123 -49 0 -16 79 -437 176 -936
97 -499 174 -910 172 -912 -2 -3 -235 -49 -517 -104 -518 -101 -542 -107 -556
-151 -3 -10 40 -251 95 -536 55 -284 99 -518 98 -519 -10 -7 -2524 -490 -2529
-486 -8 8 -752 3851 -746 3857 5 6 865 174 890 174 16 0 17 -25 17 -393 l0
-394 23 -21 c23 -22 23 -22 533 -22 l511 0 21 23 c22 23 22 24 22 524 0 469 1
502 18 507 37 11 1584 308 1587 304 1 -1 29 -136 60 -298 31 -162 63 -305 71
-317 29 -46 103 -39 125 11 10 20 -1 88 -56 373 -37 191 -70 354 -72 361 -8
19 -38 32 -74 32 -18 0 -391 -70 -830 -155 -439 -85 -805 -155 -814 -155 -13
0 -15 32 -15 245 l0 246 -25 24 c-13 14 -34 25 -47 25 -13 0 -70 -32 -128 -70
-58 -38 -109 -70 -114 -70 -5 0 -56 32 -113 70 -57 39 -114 70 -127 70 -13 0
-72 -31 -130 -70 -59 -38 -110 -70 -114 -70 -4 0 -54 32 -112 70 -58 38 -115
70 -128 70 -13 0 -34 -11 -47 -25z m641 -215 c58 -38 116 -70 128 -70 13 0 49
17 82 38 32 21 65 41 72 46 9 6 12 -134 12 -683 l0 -691 -405 0 -405 0 0 691
c0 549 3 689 13 683 6 -5 39 -25 71 -46 33 -21 69 -38 82 -38 12 0 69 31 126
69 56 38 106 70 110 70 4 1 55 -30 114 -69z m2498 -3102 c-26 -46 -659 -978
-663 -978 -9 0 -165 819 -157 827 6 7 773 160 809 162 12 1 16 -3 11 -11z"/>
</g>
</svg>
